<svg width="139" height="32" viewBox="0 0 139 32" fill="none" xmlns="http://www.w3.org/2000/svg">
<path d="M41.504 7.8H46.4C47.5947 7.8 48.656 8.03467 49.584 8.504C50.512 8.96267 51.232 9.61867 51.744 10.472C52.256 11.3147 52.512 12.2907 52.512 13.4C52.512 14.5093 52.256 15.4907 51.744 16.344C51.232 17.1867 50.512 17.8427 49.584 18.312C48.656 18.7707 47.5947 19 46.4 19H41.504V7.8ZM46.304 17.24C47.1253 17.24 47.8453 17.0853 48.464 16.776C49.0933 16.456 49.5733 16.008 49.904 15.432C50.2453 14.8453 50.416 14.168 50.416 13.4C50.416 12.632 50.2453 11.96 49.904 11.384C49.5733 10.7973 49.0933 10.3493 48.464 10.04C47.8453 9.72 47.1253 9.56 46.304 9.56H43.584V17.24H46.304ZM57.7948 10.36C59.0534 10.36 60.0134 10.664 60.6748 11.272C61.3468 11.8693 61.6828 12.776 61.6828 13.992V19H59.7948V17.96C59.5494 18.3333 59.1974 18.6213 58.7388 18.824C58.2908 19.016 57.7468 19.112 57.1068 19.112C56.4668 19.112 55.9068 19.0053 55.4268 18.792C54.9468 18.568 54.5734 18.264 54.3068 17.88C54.0508 17.4853 53.9228 17.0427 53.9228 16.552C53.9228 15.784 54.2054 15.1707 54.7708 14.712C55.3468 14.2427 56.2481 14.008 57.4748 14.008H59.6828V13.88C59.6828 13.2827 59.5014 12.824 59.1388 12.504C58.7868 12.184 58.2588 12.024 57.5548 12.024C57.0748 12.024 56.6001 12.0987 56.1308 12.248C55.6721 12.3973 55.2828 12.6053 54.9628 12.872L54.1788 11.416C54.6268 11.0747 55.1654 10.8133 55.7948 10.632C56.4241 10.4507 57.0908 10.36 57.7948 10.36ZM57.5228 17.656C58.0241 17.656 58.4668 17.544 58.8508 17.32C59.2454 17.0853 59.5228 16.7547 59.6828 16.328V15.336H57.6188C56.4668 15.336 55.8908 15.7147 55.8908 16.472C55.8908 16.8347 56.0348 17.1227 56.3228 17.336C56.6108 17.5493 57.0108 17.656 57.5228 17.656ZM66.8895 19.112C66.1962 19.112 65.5188 19.0213 64.8575 18.84C64.1962 18.6587 63.6682 18.4293 63.2735 18.152L64.0415 16.632C64.4255 16.888 64.8842 17.096 65.4175 17.256C65.9615 17.4053 66.4948 17.48 67.0175 17.48C68.2122 17.48 68.8095 17.1653 68.8095 16.536C68.8095 16.2373 68.6548 16.0293 68.3455 15.912C68.0468 15.7947 67.5615 15.6827 66.8895 15.576C66.1855 15.4693 65.6095 15.3467 65.1615 15.208C64.7242 15.0693 64.3402 14.8293 64.0095 14.488C63.6895 14.136 63.5295 13.6507 63.5295 13.032C63.5295 12.2213 63.8655 11.576 64.5375 11.096C65.2202 10.6053 66.1375 10.36 67.2895 10.36C67.8762 10.36 68.4628 10.4293 69.0495 10.568C69.6362 10.696 70.1162 10.872 70.4895 11.096L69.7215 12.616C68.9962 12.1893 68.1802 11.976 67.2735 11.976C66.6868 11.976 66.2388 12.0667 65.9295 12.248C65.6308 12.4187 65.4815 12.648 65.4815 12.936C65.4815 13.256 65.6415 13.4853 65.9615 13.624C66.2922 13.752 66.7988 13.8747 67.4815 13.992C68.1642 14.0987 68.7242 14.2213 69.1615 14.36C69.5988 14.4987 69.9722 14.7333 70.2815 15.064C70.6015 15.3947 70.7615 15.864 70.7615 16.472C70.7615 17.272 70.4148 17.912 69.7215 18.392C69.0282 18.872 68.0842 19.112 66.8895 19.112ZM77.3319 10.36C78.4092 10.36 79.2732 10.6747 79.9239 11.304C80.5745 11.9333 80.8999 12.8667 80.8999 14.104V19H78.8999V14.36C78.8999 13.6133 78.7239 13.0533 78.3719 12.68C78.0199 12.296 77.5185 12.104 76.8679 12.104C76.1319 12.104 75.5505 12.328 75.1239 12.776C74.6972 13.2133 74.4839 13.848 74.4839 14.68V19H72.4839V7.128H74.4839V11.448C74.8145 11.096 75.2199 10.8293 75.6999 10.648C76.1905 10.456 76.7345 10.36 77.3319 10.36ZM88.173 10.36C89.005 10.36 89.7463 10.5413 90.397 10.904C91.0583 11.2667 91.5757 11.7787 91.949 12.44C92.3223 13.1013 92.509 13.864 92.509 14.728C92.509 15.592 92.3223 16.36 91.949 17.032C91.5757 17.6933 91.0583 18.2053 90.397 18.568C89.7463 18.9307 89.005 19.112 88.173 19.112C87.5863 19.112 87.0477 19.0107 86.557 18.808C86.077 18.6053 85.6717 18.3013 85.341 17.896V19H83.437V7.128H85.437V11.496C85.7783 11.1227 86.1783 10.84 86.637 10.648C87.1063 10.456 87.6183 10.36 88.173 10.36ZM87.949 17.4C88.685 17.4 89.2877 17.1547 89.757 16.664C90.237 16.1733 90.477 15.528 90.477 14.728C90.477 13.928 90.237 13.2827 89.757 12.792C89.2877 12.3013 88.685 12.056 87.949 12.056C87.469 12.056 87.037 12.168 86.653 12.392C86.269 12.6053 85.965 12.9147 85.741 13.32C85.517 13.7253 85.405 14.1947 85.405 14.728C85.405 15.2613 85.517 15.7307 85.741 16.136C85.965 16.5413 86.269 16.856 86.653 17.08C87.037 17.2933 87.469 17.4 87.949 17.4ZM98.2458 19.112C97.3818 19.112 96.6031 18.9253 95.9098 18.552C95.2164 18.1787 94.6724 17.6613 94.2778 17C93.8938 16.328 93.7018 15.5707 93.7018 14.728C93.7018 13.8853 93.8938 13.1333 94.2778 12.472C94.6724 11.8107 95.2164 11.2933 95.9098 10.92C96.6031 10.5467 97.3818 10.36 98.2458 10.36C99.1204 10.36 99.9044 10.5467 100.598 10.92C101.291 11.2933 101.83 11.8107 102.214 12.472C102.608 13.1333 102.806 13.8853 102.806 14.728C102.806 15.5707 102.608 16.328 102.214 17C101.83 17.6613 101.291 18.1787 100.598 18.552C99.9044 18.9253 99.1204 19.112 98.2458 19.112ZM98.2458 17.4C98.9818 17.4 99.5898 17.1547 100.07 16.664C100.55 16.1733 100.79 15.528 100.79 14.728C100.79 13.928 100.55 13.2827 100.07 12.792C99.5898 12.3013 98.9818 12.056 98.2458 12.056C97.5098 12.056 96.9018 12.3013 96.4218 12.792C95.9524 13.2827 95.7178 13.928 95.7178 14.728C95.7178 15.528 95.9524 16.1733 96.4218 16.664C96.9018 17.1547 97.5098 17.4 98.2458 17.4ZM107.873 10.36C109.132 10.36 110.092 10.664 110.753 11.272C111.425 11.8693 111.761 12.776 111.761 13.992V19H109.873V17.96C109.628 18.3333 109.276 18.6213 108.817 18.824C108.369 19.016 107.825 19.112 107.185 19.112C106.545 19.112 105.985 19.0053 105.505 18.792C105.025 18.568 104.652 18.264 104.385 17.88C104.129 17.4853 104.001 17.0427 104.001 16.552C104.001 15.784 104.284 15.1707 104.849 14.712C105.425 14.2427 106.326 14.008 107.553 14.008H109.761V13.88C109.761 13.2827 109.58 12.824 109.217 12.504C108.865 12.184 108.337 12.024 107.633 12.024C107.153 12.024 106.678 12.0987 106.209 12.248C105.75 12.3973 105.361 12.6053 105.041 12.872L104.257 11.416C104.705 11.0747 105.244 10.8133 105.873 10.632C106.502 10.4507 107.169 10.36 107.873 10.36ZM107.601 17.656C108.102 17.656 108.545 17.544 108.929 17.32C109.324 17.0853 109.601 16.7547 109.761 16.328V15.336H107.697C106.545 15.336 105.969 15.7147 105.969 16.472C105.969 16.8347 106.113 17.1227 106.401 17.336C106.689 17.5493 107.089 17.656 107.601 17.656ZM116.232 11.704C116.808 10.808 117.821 10.36 119.272 10.36V12.264C119.101 12.232 118.946 12.216 118.808 12.216C118.029 12.216 117.421 12.4453 116.984 12.904C116.546 13.352 116.328 14.0027 116.328 14.856V19H114.328V10.456H116.232V11.704ZM129.258 7.128V19H127.338V17.896C127.007 18.3013 126.597 18.6053 126.106 18.808C125.626 19.0107 125.093 19.112 124.506 19.112C123.685 19.112 122.943 18.9307 122.282 18.568C121.631 18.2053 121.119 17.6933 120.746 17.032C120.373 16.36 120.186 15.592 120.186 14.728C120.186 13.864 120.373 13.1013 120.746 12.44C121.119 11.7787 121.631 11.2667 122.282 10.904C122.943 10.5413 123.685 10.36 124.506 10.36C125.071 10.36 125.589 10.456 126.058 10.648C126.527 10.84 126.927 11.128 127.258 11.512V7.128H129.258ZM124.746 17.4C125.226 17.4 125.658 17.2933 126.042 17.08C126.426 16.856 126.73 16.5413 126.954 16.136C127.178 15.7307 127.29 15.2613 127.29 14.728C127.29 14.1947 127.178 13.7253 126.954 13.32C126.73 12.9147 126.426 12.6053 126.042 12.392C125.658 12.168 125.226 12.056 124.746 12.056C124.266 12.056 123.834 12.168 123.45 12.392C123.066 12.6053 122.762 12.9147 122.538 13.32C122.314 13.7253 122.202 14.1947 122.202 14.728C122.202 15.2613 122.314 15.7307 122.538 16.136C122.762 16.5413 123.066 16.856 123.45 17.08C123.834 17.2933 124.266 17.4 124.746 17.4Z" fill="#BB6BD9"/>
<path d="M14.7 22V17.424C14.7 16.6959 14.4155 15.9975 13.9092 15.4826C13.4028 14.9677 12.7161 14.6785 12 14.6785C11.2839 14.6785 10.5972 14.9677 10.0908 15.4826C9.58446 15.9975 9.3 16.6959 9.3 17.424V22H4.8C4.32261 22 3.86477 21.8072 3.52721 21.4639C3.18964 21.1206 3 20.6551 3 20.1696V10.2233C3 9.90724 3.08049 9.59654 3.23363 9.32148C3.38678 9.04643 3.60736 8.81639 3.8739 8.65376L11.0739 4.26085C11.3536 4.09016 11.6738 4 12 4C12.3262 4 12.6464 4.09016 12.9261 4.26085L20.1261 8.65376C20.3926 8.81639 20.6132 9.04643 20.7664 9.32148C20.9195 9.59654 21 9.90724 21 10.2233V20.1696C21 20.6551 20.8104 21.1206 20.4728 21.4639C20.1352 21.8072 19.6774 22 19.2 22H14.7Z" fill="#BB6BD9"/>
</svg>
